<svg xmlns="http://www.w3.org/2000/svg" xmlns:xlink="http://www.w3.org/1999/xlink" width="20" height="20" viewBox="0 0 202.347 147.358">
  <defs>
    <linearGradient id="linear-gradient" x1="0.385" y1="0.987" x2="0.615" y2="0.013" gradientUnits="objectBoundingBox">
      <stop offset="0" stop-color="#e62932"/>
      <stop offset="1" stop-color="#ffc500"/>
    </linearGradient>
    <linearGradient id="linear-gradient-2" x1="0.373" y1="0.975" x2="0.625" y2="0.019" xlink:href="#linear-gradient"/>
  </defs>
  <g id="Logo" transform="translate(-74.707 -53.713)">
    <g id="Group_7600" data-name="Group 7600" transform="translate(133.847 53.713)">
      <path id="Path_12362" data-name="Path 12362" d="M225.379,137.779a42.033,42.033,0,1,1,42.033-42.033A42.081,42.081,0,0,1,225.379,137.779Zm0-79.8a37.771,37.771,0,1,0,37.77,37.771A37.813,37.813,0,0,0,225.379,57.975Z" transform="translate(-183.345 -53.713)" fill="url(#linear-gradient)"/>
      <path id="Path_12363" data-name="Path 12363" d="M224.872,136.8c4.915-5.221,26.782-21.864,5.554-41.38a.186.186,0,0,1,.16-.328c1.778.59,13.076,3.671,21.24,6.892.4.159.79.32,1.17.481C253.822,122.042,230.15,134.312,224.872,136.8Zm30.785-33.089c-.094,9.39-5.274,18.483-15.067,26.386a74.134,74.134,0,0,1-12.743,8.2C242.352,135.9,280.18,116.427,255.657,103.71Z" transform="translate(-202.266 -72.561)" fill="url(#linear-gradient-2)"/>
    </g>
    <path id="Path_12364" data-name="Path 12364" d="M78.829,254.9h25.857v-.75a2.248,2.248,0,0,0-2.248-2.248H77.7v-1.5a2.245,2.245,0,0,0-2.248-2.248h-.75v14.24a2.246,2.246,0,0,0,2.248,2.249h27.73v-.75a2.245,2.245,0,0,0-2.248-2.248H78.829a1.123,1.123,0,0,1-1.124-1.125V256.02A1.122,1.122,0,0,1,78.829,254.9Z" transform="translate(0 -88.59)" fill="#e82832"/>
    <path id="Path_12365" data-name="Path 12365" d="M163.014,258.641a2.249,2.249,0,0,0,2.249-2.249v-6a2.249,2.249,0,0,0-2.249-2.248H137.533a2.249,2.249,0,0,0-2.249,2.248v11.991a2.249,2.249,0,0,0,2.249,2.249h27.73v-.75a2.249,2.249,0,0,0-2.249-2.248H139.407a1.123,1.123,0,0,1-1.125-1.125v-.753a1.123,1.123,0,0,1,1.125-1.125h22.859v0Zm-23.608-3a1.123,1.123,0,0,1-1.125-1.124V252.27a1.123,1.123,0,0,1,1.125-1.124h21.734a1.123,1.123,0,0,1,1.125,1.124v2.244a1.123,1.123,0,0,1-1.125,1.124Z" transform="translate(-27.6 -88.59)" fill="#e82832"/>
    <path id="Path_12366" data-name="Path 12366" d="M223.592,248.148h-27.73v.75a2.248,2.248,0,0,0,2.248,2.248h23.608a1.123,1.123,0,0,1,1.124,1.124v.745a1.123,1.123,0,0,1-1.124,1.124H198.11a2.248,2.248,0,0,0-2.248,2.248v6a2.248,2.248,0,0,0,2.248,2.248h.75v0h24.733a2.249,2.249,0,0,0,2.248-2.249V250.4A2.249,2.249,0,0,0,223.592,248.148Zm-.75,12.366a1.123,1.123,0,0,1-1.124,1.125H199.984a1.123,1.123,0,0,1-1.124-1.125v-2.253a1.122,1.122,0,0,1,1.124-1.124h21.735a1.123,1.123,0,0,1,1.124,1.124Z" transform="translate(-55.201 -88.59)" fill="#e82832"/>
    <path id="Path_12367" data-name="Path 12367" d="M360,248.148a2.248,2.248,0,0,0-2.248,2.248v10.118a1.123,1.123,0,0,1-1.124,1.125H334.906a1.123,1.123,0,0,1-1.124-1.125V250.4a2.249,2.249,0,0,0-2.249-2.248h-.749v14.24a2.249,2.249,0,0,0,2.248,2.249H358.5a2.249,2.249,0,0,0,2.248-2.249v-14.24Z" transform="translate(-116.676 -88.59)" fill="#e82832"/>
    <path id="Path_12368" data-name="Path 12368" d="M419.073,248.148H393.592a2.248,2.248,0,0,0-2.249,2.248v14.24h.75a2.249,2.249,0,0,0,2.248-2.249v-1.5h24.733a2.249,2.249,0,0,0,2.248-2.248V250.4A2.248,2.248,0,0,0,419.073,248.148Zm-.75,8.619a1.123,1.123,0,0,1-1.124,1.124H395.465a1.123,1.123,0,0,1-1.124-1.124v-4.5a1.123,1.123,0,0,1,1.124-1.124H417.2a1.122,1.122,0,0,1,1.124,1.124Z" transform="translate(-144.268 -88.59)" fill="#e82832"/>
    <path id="Path_12369" data-name="Path 12369" d="M291.664,248.148h-14.24a2.248,2.248,0,0,0-2.248,2.248,2.246,2.246,0,0,0-2.249-2.248h-14.24a2.245,2.245,0,0,0-2.248,2.248v14.24h.75a2.246,2.246,0,0,0,2.248-2.249V252.27a1.122,1.122,0,0,1,1.124-1.124h11.991a1.122,1.122,0,0,1,1.124,1.124v12.367h.749a2.249,2.249,0,0,0,2.249-2.249V252.27a1.122,1.122,0,0,1,1.124-1.124H289.79a1.123,1.123,0,0,1,1.125,1.124v10.118a2.249,2.249,0,0,0,2.248,2.249h.75V250.4A2.249,2.249,0,0,0,291.664,248.148Z" transform="translate(-82.802 -88.59)" fill="#e82832"/>
    <path id="Path_12370" data-name="Path 12370" d="M202.253,299.624a1.839,1.839,0,0,0-1.839,1.839v8.278a.919.919,0,0,1-.92.92H181.718a.919.919,0,0,1-.92-.92v-8.278a1.84,1.84,0,0,0-1.839-1.839h-.613v11.651a1.84,1.84,0,0,0,1.839,1.839h20.841a1.84,1.84,0,0,0,1.839-1.839V299.624Z" transform="translate(-47.221 -112.044)" fill="#f36c14"/>
    <path id="Path_12371" data-name="Path 12371" d="M298.028,299.627a1.839,1.839,0,0,0-1.84,1.839v5.212a.918.918,0,0,1-.919.919h-9.811a.918.918,0,0,1-.92-.919v-5.212a1.84,1.84,0,0,0-1.84-1.84h-.612v7.052a.918.918,0,0,1-.92.919h-9.811a.916.916,0,0,1-.915-.874v-5.261a1.84,1.84,0,0,0-1.839-1.839H247.75a1.84,1.84,0,0,0-1.839,1.839v11.651h.613a1.84,1.84,0,0,0,1.84-1.84v-1.226l33.108,0a1.837,1.837,0,0,0,1.839-1.839,1.84,1.84,0,0,0,1.84,1.839H296.8a1.84,1.84,0,0,0,1.839-1.839v-8.585ZM267.066,307.6H249.283a.918.918,0,0,1-.919-.92V303a.918.918,0,0,1,.919-.92h17.783a.918.918,0,0,1,.919.92v3.679A.918.918,0,0,1,267.066,307.6Z" transform="translate(-78.005 -112.044)" fill="#f36c14"/>
    <path id="Rectangle_2585" data-name="Rectangle 2585" d="M0,0H0A2.453,2.453,0,0,1,2.453,2.453V13.49a0,0,0,0,1,0,0h0A2.453,2.453,0,0,1,0,11.038V0A0,0,0,0,1,0,0Z" transform="translate(160.551 187.58)" fill="#f36c14"/>
    <path id="Rectangle_2586" data-name="Rectangle 2586" d="M12.741,0H49.9a0,0,0,0,1,0,0V0A12.741,12.741,0,0,1,37.161,12.741H0a0,0,0,0,1,0,0v0A12.741,12.741,0,0,1,12.741,0Z" transform="translate(227.152 187.955)" fill="#e82832"/>
    <path id="Rectangle_2587" data-name="Rectangle 2587" d="M0,0H37.161A12.741,12.741,0,0,1,49.9,12.741v0a0,0,0,0,1,0,0H12.741A12.741,12.741,0,0,1,0,0V0A0,0,0,0,1,0,0Z" transform="translate(74.707 187.955)" fill="#e82832"/>
  </g>
</svg>
