<svg id="Basketball-ball_1_" xmlns="http://www.w3.org/2000/svg" width="38.636" height="38.63" viewBox="0 0 38.636 38.63">
  <path id="Basketball-ball" d="M32.985,5.656a19.315,19.315,0,1,0,0,27.329A19.347,19.347,0,0,0,32.985,5.656ZM37.3,21.411c-1.473-.5-6.268-1.57-11.493,3.113l-5.24-5.2L32.727,7.247a.582.582,0,0,0,.043-.065A18.1,18.1,0,0,1,37.3,21.411ZM22.37,37.167c-.42-1.2-1.583-5.868,3.423-10.958l6.083,6.041a.544.544,0,0,0,.077.051A18.012,18.012,0,0,1,22.37,37.167ZM31.953,6.34a.526.526,0,0,0-.077.051L19.714,18.469,14.01,12.8c4.648-5.154,3.685-9.9,3.176-11.462a18.048,18.048,0,0,1,14.768,5ZM7.1,5.945A18,18,0,0,1,15.97,1.524c.357,1,1.593,5.486-2.818,10.427Zm-.862.846,6.074,6.032c-4.981,4.865-9.55,3.837-10.842,3.4A17.957,17.957,0,0,1,6.242,6.791ZM1.208,19.32a18.409,18.409,0,0,1,.1-1.884,9.688,9.688,0,0,0,2.786.4c2.356,0,5.652-.8,9.081-4.158l5.685,5.646L6.242,31.849A17.986,17.986,0,0,1,1.208,19.32ZM7.1,32.695l12.61-12.524,5.223,5.187c-5.2,5.286-4.316,10.259-3.781,11.976A18.1,18.1,0,0,1,7.1,32.695Zm25.667-1.237a.583.583,0,0,0-.043-.065l-6.058-6.017c5.1-4.525,9.626-3.072,10.455-2.748A18,18,0,0,1,32.771,31.458Z" transform="translate(0 -0.005)" fill="#171636"/>
</svg>
