<svg xmlns="http://www.w3.org/2000/svg" width="54.032" height="31.518" viewBox="0 0 54.032 31.518">
  <g id="bike" transform="translate(-0.001 -106.667)">
    <g id="Group_7602" data-name="Group 7602" transform="translate(0.001 106.667)">
      <path id="Path_12379" data-name="Path 12379" d="M45.928,121.976a8.047,8.047,0,0,0-2.512.4l-.855-1.881a9.853,9.853,0,0,1,2.466-.323h3.6a.9.9,0,0,0,.9-.9c0-6.716-5.471-12.608-11.707-12.608a.9.9,0,0,0-.843,1.217l.422,1.127L35.34,108.5a.9.9,0,0,0-.436,1.748l3.267.817.791,2.109c-3.576-1.295-8.877-2.444-12.583-.894a6.6,6.6,0,0,0-3.536,3.337l-7.532-.755v-.986a.9.9,0,0,0-.724-.883l-9.005-1.8a.9.9,0,0,0-.982,1.286l1.337,2.673-4.418,1.472a.9.9,0,0,0-.607.727l-.9,6.3a.9.9,0,0,0,1.623.653,10.3,10.3,0,0,1,8.274-4.127,9.917,9.917,0,0,1,9.536,7.257l-1.775.322a8.1,8.1,0,1,0,.344,2.327c0-.186-.015-.369-.028-.553l1.785-.324c.025.289.044.581.044.877a.9.9,0,0,0,.9.9H34.221a.9.9,0,0,0,.9-.9,9.911,9.911,0,0,1,5.738-8.974l.92,2.024a8.087,8.087,0,1,0,4.148-1.155ZM9.907,136.384a6.3,6.3,0,1,1,5.972-8.3l-6.133,1.115a.9.9,0,0,0,.322,1.772l6.131-1.115c0,.077.012.151.012.229A6.311,6.311,0,0,1,9.907,136.384Zm23.448-7.2H21.579A11.723,11.723,0,0,0,9.907,118.374a12.329,12.329,0,0,0-7.715,2.741l.423-2.964,4.875-1.625a.9.9,0,0,0,.521-1.257l-.978-1.955,6.476,1.3v1.063a.9.9,0,0,0,.81.9l9.005.9a.9.9,0,0,0,.936-.586,4.843,4.843,0,0,1,2.813-2.947c3.889-1.628,10.256.371,13.078,1.656a.9.9,0,0,0,1.217-1.136l-2.2-5.879a10.114,10.114,0,0,1,6.58,4.393h-.716a.9.9,0,0,0,0,1.8h1.728a11.116,11.116,0,0,1,.936,3.6H45.027A11.723,11.723,0,0,0,33.355,129.18Zm12.573,7.2a6.3,6.3,0,0,1-3.4-11.6l2.579,5.673a.9.9,0,0,0,1.639-.746l-2.58-5.676a6.3,6.3,0,1,1,1.76,12.353Z" transform="translate(-0.001 -106.667)" fill="#171636"/>
    </g>
  </g>
</svg>
