<svg xmlns="http://www.w3.org/2000/svg" width="39.708" height="38.014" viewBox="0 0 39.708 38.014">
  <g id="Bycicle-racer" transform="translate(0 -1.368)">
    <path id="Path_12374" data-name="Path 12374" d="M7.575,51.835A4.315,4.315,0,0,1,6.23,48.7a.621.621,0,0,0-1.24.065,5.525,5.525,0,0,0,1.77,4,5.435,5.435,0,0,0,3.65,1.255q.329,0,.672-.03a.621.621,0,0,0-.107-1.237A4.471,4.471,0,0,1,7.575,51.835Z" transform="translate(-1.894 -17.742)" fill="#171636"/>
    <path id="Path_12375" data-name="Path 12375" d="M54.724,48.115a.622.622,0,0,0-.653.587,4.315,4.315,0,0,1-1.345,3.133,4.48,4.48,0,0,1-3.4.925A.621.621,0,0,0,49.22,54q.342.03.672.03a5.435,5.435,0,0,0,3.65-1.255,5.525,5.525,0,0,0,1.77-4A.621.621,0,0,0,54.724,48.115Z" transform="translate(-18.466 -17.742)" fill="#171636"/>
    <path id="Path_12376" data-name="Path 12376" d="M12.326,17.217l9.031-8.3-1.221,6.5a.621.621,0,0,0,.459.717l6.192,1.548a.6.6,0,0,0,.151.019.62.62,0,0,0,.15-1.222l-5.625-1.407,1.44-7.67a.611.611,0,0,0,0-.1,3.081,3.081,0,0,0,1.225.264,3.1,3.1,0,1,0-3-2.3A3.069,3.069,0,0,0,22,6.713a.624.624,0,0,0-.207.125L11.045,16.709h0l-.008.007a.572.572,0,0,0-.065.09.624.624,0,0,0-.076.105.664.664,0,0,0-.029.11.629.629,0,0,0-.029.12.617.617,0,0,0,.016.12.6.6,0,0,0,.017.115.616.616,0,0,0,.065.112.563.563,0,0,0,.056.1l5.03,5.669-1.807,1.807a8.5,8.5,0,1,0,.815.939l2.283-2.283a.62.62,0,0,0,.025-.851ZM23.645,2.672a1.861,1.861,0,1,1-1.317,2.28A1.869,1.869,0,0,1,23.645,2.672ZM15.48,31.019a7.135,7.135,0,1,1-2.141-5.081L7.923,31.355a.62.62,0,1,0,.877.877l5.346-5.346A7.074,7.074,0,0,1,15.48,31.019Z" fill="#171636"/>
    <path id="Path_12377" data-name="Path 12377" d="M41.764,30.945a8.307,8.307,0,0,0-4.044,1.048c-.849-1.118-1.655-2.173-2.213-2.9h4.129c.019,0,.125.007.293.007a5.359,5.359,0,0,0,3.443-1.06,2.522,2.522,0,0,0,.792-1.888,2.681,2.681,0,0,0-.837-2.058,4.286,4.286,0,0,0-2.927-.882.62.62,0,0,0,.094,1.237A3.018,3.018,0,0,1,42.488,25a1.473,1.473,0,0,1,.436,1.145,1.278,1.278,0,0,1-.4.983,4.482,4.482,0,0,1-2.85.719H28.063a.62.62,0,0,0,0,1.241h5.881c.825,1.078,1.793,2.346,2.739,3.591a8.345,8.345,0,1,0,5.081-1.737Zm0,15.48a7.111,7.111,0,0,1-4.331-12.758c1.57,2.07,2.927,3.88,3.207,4.3a.61.61,0,0,0,.216.287.633.633,0,0,0,.375.122.623.623,0,0,0,.445-.184c.415-.423.414-.444-3.2-5.2a7.118,7.118,0,1,1,3.283,13.432Z" transform="translate(-10.416 -8.286)" fill="#171636"/>
    <path id="Path_12378" data-name="Path 12378" d="M5.61,31.934H11.8a.62.62,0,1,0,0-1.241H5.61a.62.62,0,1,0,0,1.241Z" transform="translate(-1.894 -11.13)" fill="#171636"/>
  </g>
</svg>
