<svg xmlns="http://www.w3.org/2000/svg" width="44.993" height="38.054" viewBox="0 0 44.993 38.054">
  <g id="Card_Game-Poker" data-name="Card Game-Poker" transform="translate(-2.102 -9)">
    <path id="Path_12382" data-name="Path 12382" d="M22.558,28.537A3.326,3.326,0,0,0,27.579,31.5l-.9,3.612a.753.753,0,0,0,.729.938H31.92a.753.753,0,0,0,.73-.935l-.9-3.612a3.337,3.337,0,0,0,3.913-5.361L30.167,21.2a.753.753,0,0,0-1.007,0l-5.493,4.946a3.311,3.311,0,0,0-1.108,2.394Zm5.811,6.009,1.218-4.882.075-.075.075.075,1.218,4.882Zm-3.7-7.287,4.992-4.493,4.992,4.493a1.838,1.838,0,1,1-2.53,2.666l-1.93-1.931a.753.753,0,0,0-1.064,0L27.2,29.925a1.838,1.838,0,1,1-2.53-2.666Z" transform="translate(-5.062 -2.971)" fill="#171636"/>
    <path id="Path_12383" data-name="Path 12383" d="M22,17.526h2.08l.544,1.089,1.347-.673L23.71,13.427a.784.784,0,0,0-1.347,0L20.1,17.942l1.347.673Zm1.327-1.505h-.575l.287-.575Z" transform="translate(-4.456 -1.001)" fill="#171636"/>
    <path id="Path_12384" data-name="Path 12384" d="M45.612,15.8l-8.971-3.267V11.258A2.258,2.258,0,0,0,34.383,9H14.818a2.258,2.258,0,0,0-2.258,2.258v1.279L3.588,15.8a2.27,2.27,0,0,0-1.355,2.89l9.783,26.873a2.267,2.267,0,0,0,2.891,1.355L24.6,43.39l9.7,3.529a2.265,2.265,0,0,0,2.888-1.355l9.783-26.877A2.27,2.27,0,0,0,45.612,15.8ZM14.065,11.258a.753.753,0,0,1,.753-.753H34.383a.753.753,0,0,1,.753.753v28.6a.753.753,0,0,1-.753.753H14.818a.753.753,0,0,1-.753-.753ZM14.4,45.5a.759.759,0,0,1-.965-.451L3.65,18.187A.753.753,0,0,1,4.1,17.22l8.459-3.082v6.806L8.928,17.5a.753.753,0,0,0-1.265.461l-.576,5.015,1.494.172.141-1.207,1.957-.711.884.837,1-1.059V39.853a2.258,2.258,0,0,0,2.258,2.258h8.9ZM9.453,20.075l-.54.2.075-.639Zm36.1-1.894L35.768,45.052a.753.753,0,0,1-.962.451L26.8,42.59l1.316-.479h6.271a2.258,2.258,0,0,0,2.258-2.258V21.01l1,1.058.884-.837,1.957.711.139,1.209,1.494-.172-.576-5.015a.753.753,0,0,0-1.265-.461l-3.635,3.439V14.138L45.1,17.217a.752.752,0,0,1,.455.964Zm-5.8,1.894.467-.442.075.639Z" fill="#171636"/>
    <path id="Path_12385" data-name="Path 12385" d="M39,42.642l-.54-1.089-1.347.673,2.258,4.515a.753.753,0,0,0,1.347,0l2.258-4.515-1.347-.673-.548,1.089Zm.753,1.505h.575l-.287.575Z" transform="translate(-8.664 -8.057)" fill="#171636"/>
  </g>
</svg>
