<svg xmlns="http://www.w3.org/2000/svg" width="55.42" height="31.143" viewBox="0 0 55.42 31.143">
  <g id="Clocks_1_" transform="translate(0 -14.017)">
    <path id="Clocks" d="M54.572,24.6a2.913,2.913,0,0,0-2.224-1.087H51.089V22.5a3.434,3.434,0,0,0-3.536-3.313h-1.66V17.306a3.275,3.275,0,0,0-1.032-2.365,3.66,3.66,0,0,0-4.862,0,3.276,3.276,0,0,0-1.033,2.366v8.8H16.453v-8.8a3.272,3.272,0,0,0-1.032-2.365,3.66,3.66,0,0,0-4.862,0,3.273,3.273,0,0,0-1.033,2.365v1.876H7.663a3.443,3.443,0,0,0-2.332.89,3.056,3.056,0,0,0-1,2.237v1.2H3.083A2.924,2.924,0,0,0,.849,24.6,3.8,3.8,0,0,0,0,27.038v5.071a3.8,3.8,0,0,0,.85,2.435,2.923,2.923,0,0,0,2.232,1.091H4.33v1.2a3.058,3.058,0,0,0,1,2.238,3.439,3.439,0,0,0,2.33.889H9.525v1.876A3.272,3.272,0,0,0,10.557,44.2a3.573,3.573,0,0,0,4.863,0,3.272,3.272,0,0,0,1.032-2.364v-8.8H38.966v8.8A3.272,3.272,0,0,0,40,44.2a3.573,3.573,0,0,0,4.863,0,3.275,3.275,0,0,0,1.032-2.364V39.964h1.66a3.434,3.434,0,0,0,3.536-3.313V35.635h1.259a2.918,2.918,0,0,0,2.225-1.087,3.785,3.785,0,0,0,.847-2.425v-5.1A3.788,3.788,0,0,0,54.572,24.6ZM3.083,33.9a1.186,1.186,0,0,1-.9-.468,2.092,2.092,0,0,1-.449-1.327V27.038a2.094,2.094,0,0,1,.449-1.327,1.186,1.186,0,0,1,.9-.468H4.33V33.9H3.083Zm4.581,4.33A1.73,1.73,0,0,1,6.5,37.8a1.3,1.3,0,0,1-.442-.962V22.31a1.3,1.3,0,0,1,.441-.961,1.736,1.736,0,0,1,1.161-.435H9.525V38.232H7.663Zm7.057,3.608a1.513,1.513,0,0,1-.489,1.1,1.908,1.908,0,0,1-2.484,0,1.512,1.512,0,0,1-.49-1.1V17.306a1.513,1.513,0,0,1,.489-1.1,1.842,1.842,0,0,1,2.485,0,1.515,1.515,0,0,1,.489,1.106V41.841Zm1.732-10.536V27.841H38.966v3.464Zm27.71,10.536a1.513,1.513,0,0,1-.489,1.1,1.908,1.908,0,0,1-2.484,0,1.512,1.512,0,0,1-.49-1.1V17.307a1.513,1.513,0,0,1,.489-1.1,1.842,1.842,0,0,1,2.485,0,1.512,1.512,0,0,1,.489,1.1V41.841Zm5.2-5.189a1.705,1.705,0,0,1-1.8,1.581h-1.66V20.914h1.66a1.706,1.706,0,0,1,1.8,1.581V36.651Zm4.33-4.529a2.084,2.084,0,0,1-.445,1.316,1.175,1.175,0,0,1-.894.464H51.089V25.244h1.259a1.175,1.175,0,0,1,.894.464,2.077,2.077,0,0,1,.445,1.316Z" transform="translate(0)" fill="#171636"/>
  </g>
</svg>
