<svg id="Football-ball_1_" xmlns="http://www.w3.org/2000/svg" width="38.641" height="38.641" viewBox="0 0 38.641 38.641">
  <path id="Football-ball" d="M19.321,0A19.321,19.321,0,1,0,38.641,19.321,19.342,19.342,0,0,0,19.321,0ZM37.207,22.177l-2.346-3.888,1.619-4.758a18.055,18.055,0,0,1,.727,8.645Zm-4.563,9.4a.6.6,0,0,0-.246-.012l-5.843.937a.6.6,0,0,0-.074-.208l-3.322-5.537,5.371-8.272h5.089a.6.6,0,0,0,.063.188l3.161,5.239A18.086,18.086,0,0,1,32.643,31.576Zm-6.089,2.148L31.2,32.98a18.087,18.087,0,0,1-7.068,3.8ZM7.638,5.494A18.027,18.027,0,0,1,18.885,1.218a.593.593,0,0,0,.145.227l3.336,3.148L21.046,9.518l-8.6,3.3a.594.594,0,0,0-.093-.076L7,9.9ZM23.176,3.7,20.59,1.257a17.97,17.97,0,0,1,6.635,1.77ZM13.241,23.388,12.748,14l8.779-3.371,5.919,7.309-5.122,7.887ZM35.806,11.831a.563.563,0,0,0-.056.1l-1.82,5.349H28.467l-6.2-7.655L23.544,4.86l4.993-.828a.591.591,0,0,0,.274-.132A18.234,18.234,0,0,1,35.806,11.831Zm-29.581-5-.484,3.358-3.23,2.4A18.134,18.134,0,0,1,6.225,6.827Zm-4.38,7.74a.518.518,0,0,0,.079-.041L6.6,11.054l4.926,2.61.536,10.225c0,.015.008.029.01.044L7.412,28.539a.579.579,0,0,0-.09.134L2.858,26.759a.518.518,0,0,0-.051-.011,18.043,18.043,0,0,1-.962-12.181ZM3.67,28.421l3.269,1.4,2.5,4.667A18.247,18.247,0,0,1,3.67,28.421Zm7.7,7.172a.569.569,0,0,0-.035-.116l-3.21-5.992a.575.575,0,0,0,.133-.088l4.846-4.8,8.759,2.347,3.579,5.965a.6.6,0,0,0,.107.131l-3.29,4.146a18.053,18.053,0,0,1-10.889-1.6Z" fill="#171636"/>
</svg>
