<svg xmlns="http://www.w3.org/2000/svg" width="41.642" height="39.021" viewBox="0 0 41.642 39.021">
  <g id="King" transform="translate(-0.002 -1.95)">
    <path id="Path_12380" data-name="Path 12380" d="M38.808,27.785C42.64,21.141,42.583,14.4,38.668,11a10.3,10.3,0,0,0-8.175-2.181,10.556,10.556,0,0,0-6.309,3.363V12.1a3.4,3.4,0,0,0-2.552-3.3V6h2a.669.669,0,0,0,0-1.338h-2V2.642a.692.692,0,1,0-1.384,0V4.662h-2A.669.669,0,0,0,18.25,6h2V8.754a3.393,3.393,0,0,0-2.785,3.35v.081a10.554,10.554,0,0,0-6.308-3.363A10.3,10.3,0,0,0,2.979,11C-.937,14.4-.993,21.141,2.829,27.768a24.2,24.2,0,0,0,5.592,6.474H6.332a2.3,2.3,0,0,0-2.321,2.276v2.176a2.3,2.3,0,0,0,2.321,2.276H35.313a2.3,2.3,0,0,0,2.321-2.276V36.518a2.3,2.3,0,0,0-2.321-2.276H33.225A24.206,24.206,0,0,0,38.808,27.785ZM20.822,10.037l.026,0a.678.678,0,0,0,.091.018c.01,0,.019-.005.03-.006A2.043,2.043,0,0,1,22.841,12.1V34.242H18.8V12.1A2.044,2.044,0,0,1,20.822,10.037ZM3.985,27.123C.48,21.046.423,14.969,3.845,12a9.076,9.076,0,0,1,7.115-1.871,9.34,9.34,0,0,1,6.5,4.2V34.242H10.49A25.141,25.141,0,0,1,3.985,27.123Zm32.3,9.4v2.176a.951.951,0,0,1-.972.927H6.332a.951.951,0,0,1-.972-.927V36.518a.952.952,0,0,1,.972-.927H35.313A.952.952,0,0,1,36.286,36.518Zm-5.131-2.276H24.183V14.329a9.345,9.345,0,0,1,6.5-4.2A9.084,9.084,0,0,1,37.8,12c3.422,2.966,3.366,9.042-.149,15.137A25.135,25.135,0,0,1,31.155,34.242Z" transform="translate(0)" fill="#171636" fill-rule="evenodd"/>
    <path id="Path_12381" data-name="Path 12381" d="M9.57,18.3a5.184,5.184,0,0,0-3.2,2.588,4.7,4.7,0,0,0-.166,3.379.672.672,0,0,0,.631.438.687.687,0,0,0,.235-.042.673.673,0,0,0,.4-.865,3.372,3.372,0,0,1,.122-2.337,3.911,3.911,0,0,1,2.42-1.891,4.6,4.6,0,0,1,4.264.728.672.672,0,1,0,.869-1.025A5.975,5.975,0,0,0,9.57,18.3Z" transform="translate(-1.955 -5.25)" fill="#171636" fill-rule="evenodd"/>
    <circle id="Ellipse_257" data-name="Ellipse 257" cx="0.672" cy="0.672" r="0.672" transform="translate(20.267 36.933)" fill="#171636"/>
    <circle id="Ellipse_258" data-name="Ellipse 258" cx="0.672" cy="0.672" r="0.672" transform="translate(20.267 27.414)" fill="#171636"/>
    <circle id="Ellipse_259" data-name="Ellipse 259" cx="0.672" cy="0.672" r="0.672" transform="translate(20.267 21.977)" fill="#171636"/>
    <circle id="Ellipse_260" data-name="Ellipse 260" cx="0.672" cy="0.672" r="0.672" transform="translate(20.267 16.539)" fill="#171636"/>
    <circle id="Ellipse_261" data-name="Ellipse 261" cx="0.672" cy="0.672" r="0.672" transform="translate(11.319 36.933)" fill="#171636"/>
    <circle id="Ellipse_262" data-name="Ellipse 262" cx="0.672" cy="0.672" r="0.672" transform="translate(29.446 36.933)" fill="#171636"/>
  </g>
</svg>
