<svg xmlns="http://www.w3.org/2000/svg" width="40.688" height="43.468" viewBox="0 0 40.688 43.468">
  <g id="Runner_1_" transform="translate(-2.046 0)">
    <path id="Runner" d="M42.556,9.423a.678.678,0,0,0-.96-.041l-7.92,7.273-7.518-7.47.78-1.663a3.825,3.825,0,0,0,4.594-4.988,3.828,3.828,0,1,0-5.822,4.407L24.887,8.7a.633.633,0,0,0-.1.068.66.66,0,0,0-.206-.094L14.916,6.435a.677.677,0,0,0-.761.358l-5.249,10.5a.679.679,0,1,0,1.215.608L15.131,7.88,24.273,10h.006L18.656,21.984c-.006.013-.005.028-.011.041s-.015.021-.019.033L14.834,33.472,2.654,34.765a.679.679,0,0,0,.071,1.355c.024,0,.048,0,.073,0l12.614-1.339a.681.681,0,0,0,.573-.461l3.563-10.722,7.01,7.772L21.493,42.508a.679.679,0,1,0,1.237.562l5.249-11.547a.679.679,0,0,0-.113-.736l-7.789-8.634,5.469-11.66,7.633,7.584a.677.677,0,0,0,.937.018l8.4-7.713A.678.678,0,0,0,42.556,9.423ZM25.7,2.778a2.456,2.456,0,0,1,1.4-1.272h0a2.471,2.471,0,1,1-1.4,1.272Z" transform="translate(0 0)" fill="#171636"/>
  </g>
</svg>
