<svg xmlns="http://www.w3.org/2000/svg" width="52.782" height="38.466" viewBox="0 0 52.782 38.466">
  <g id="Swimmer" transform="translate(-0.001 -8.679)">
    <path id="Path_12372" data-name="Path 12372" d="M1.368,37.771c3.049-2.665,5.874-2.659,9.106-.033,1.905,1.875,3.79,2.809,5.678,2.809s3.757-.924,5.658-2.767c2.976-2.515,5.98-2.509,9.139-.021,3.675,3.348,7.594,3.349,11.355-.016,2.967-2.864,5.86-2.858,9.106.023a.825.825,0,0,0,1.1-1.234c-3.86-3.425-7.784-3.417-11.323,0-3.143,2.81-6.04,2.811-9.166-.033a10.027,10.027,0,0,0-4.557-2.172l3.333-3.706a5.8,5.8,0,1,0-1.267-1.058l-1.16,1.289L25.8,27.716a9.411,9.411,0,0,1,.924-12.891l5.142-4.713A.825.825,0,0,0,30.75,8.9l-5.142,4.713A11.063,11.063,0,0,0,24.522,28.76l2.729,3.335-1.67,1.856a.807.807,0,0,0-.175.342,9.159,9.159,0,0,0-4.7,2.263c-3.249,3.145-5.879,3.149-9.132-.047-3.926-3.2-7.619-3.191-11.289.018a.825.825,0,0,0,1.084,1.244Zm32.446-16.18a4.124,4.124,0,1,1-4.124,4.124A4.128,4.128,0,0,1,33.813,21.591Z" transform="translate(0)" fill="#171636"/>
    <path id="Path_12373" data-name="Path 12373" d="M41.181,49.911c-3.142,2.809-6.04,2.811-9.166-.033-3.86-3.044-7.652-3.038-11.311.055-3.249,3.145-5.879,3.148-9.132-.047C7.646,46.69,3.953,46.7.283,49.9a.825.825,0,0,0,1.085,1.242c3.049-2.665,5.874-2.659,9.106-.033,1.905,1.875,3.79,2.809,5.678,2.809S19.909,53,21.81,51.156c2.976-2.515,5.98-2.509,9.139-.021,3.675,3.347,7.594,3.347,11.355-.016,2.967-2.865,5.86-2.858,9.106.023a.825.825,0,0,0,1.1-1.234C48.645,46.484,44.722,46.494,41.181,49.911Z" transform="translate(0 -6.778)" fill="#171636"/>
  </g>
</svg>
