<svg id="Volleyball-ball_1_" xmlns="http://www.w3.org/2000/svg" width="38.634" height="38.629" viewBox="0 0 38.634 38.629">
  <path id="Volleyball-ball" d="M36.049,9.656A19.352,19.352,0,0,0,13.5.9a.591.591,0,0,0-.222.068A19.322,19.322,0,1,0,36.049,9.656ZM19.524,18.689a.568.568,0,0,0-.092-.149,21.176,21.176,0,0,1-5.341-9.521C20.954,5.8,28.038,6.325,35.147,10.594a.508.508,0,0,0,.05.021,17.986,17.986,0,0,1,2.209,7.918C31.872,15.178,25.863,15.231,19.524,18.689ZM33.84,8.5C27.107,5.065,20.4,4.827,13.862,7.8a16.014,16.014,0,0,1,.212-5.818A18.152,18.152,0,0,1,33.84,8.5ZM10.26,3.63a18.2,18.2,0,0,1,2.486-1.194c-1.043,5.893.947,11.724,5.8,16.928a.594.594,0,0,0,.165.116,16,16,0,0,1-4.953,6.8.557.557,0,0,0-.088-.089c-5.95-4-8.844-10-8.6-17.841a.59.59,0,0,0-.03-.176A18.006,18.006,0,0,1,10.26,3.63Zm-6.4,6.257c.159,7.39,3.135,13.133,8.85,17.1a13.3,13.3,0,0,1-9.145,1.26A18.125,18.125,0,0,1,3.857,9.888Zm.546,19.7a18.513,18.513,0,0,0,2.178.138c6.064,0,10.522-3.3,13.276-9.844,4.014-2.246,7.787-3.062,11.4-2.446a.57.57,0,0,0-.024.091c-.546,8.922-7.359,17.251-15.846,19.375a.58.58,0,0,0-.122.058A18.077,18.077,0,0,1,4.4,29.587ZM28.373,35A18,18,0,0,1,17.9,37.365,23.384,23.384,0,0,0,32.431,17.687a16.557,16.557,0,0,1,4.979,2.268A18.12,18.12,0,0,1,28.373,35Z" transform="translate(0 -0.004)" fill="#171636"/>
</svg>
